<svg xmlns="http://www.w3.org/2000/svg" width="213.566" height="203.12" viewBox="0 0 213.566 203.12">
  <g id="Group_8845" data-name="Group 8845" transform="translate(-847 -349.571)">
    <g id="Group_349" data-name="Group 349" transform="matrix(0.966, -0.259, 0.259, 0.966, 550.941, 448.224)">
      <path id="Path_2840" data-name="Path 2840" d="M60.581,107.1h98.9a5.441,5.441,0,0,0,5.26-3.885l21.9-74.972c.47-1.616-7.218-3.675-9.042,0s-19.539,69.611-21.261,69.611l-91.467-.126L44.03,4.195A5.449,5.449,0,0,0,38.684,0H5.474A5.413,5.413,0,0,0,0,5.355,5.412,5.412,0,0,0,5.474,10.71H34.291L54.059,97.729a16.071,16.071,0,0,0-9.9,14.728,16.265,16.265,0,0,0,16.423,16.065h98.9a5.356,5.356,0,1,0,0-10.71h-98.9a5.356,5.356,0,1,1,0-10.71Zm0,0" transform="translate(299 28)" fill="#666"/>
      <path id="Path_2841" data-name="Path 2841" d="M151,377.305A17.691,17.691,0,1,0,168.688,360,17.516,17.516,0,0,0,151,377.305Zm0,0" transform="translate(195.557 -193.593)" fill="#666"/>
      <path id="Path_2842" data-name="Path 2842" d="M362,377.305A17.69,17.69,0,1,0,379.69,360,17.516,17.516,0,0,0,362,377.305Zm0,0" transform="translate(67.483 -193.593)" fill="#666"/>
      <path id="Path_9937" data-name="Path 9937" d="M0,0,130,1" transform="translate(346.5 75.5)" fill="none" stroke="#666" stroke-width="8"/>
    </g>
  </g>
</svg>
