<svg xmlns="http://www.w3.org/2000/svg" width="167.097" height="140" viewBox="0 0 167.097 140">
  <path id="Path_2" data-name="Path 2" d="M43.668,83.726q-19.593,0-29.39-14.412t-9.8-40.241Q4.482,1,18.53-20.525T62.153-56.274l13.309,27.7Q57.716-20.713,48.844-9.3T39.972,18.967a12.818,12.818,0,0,1,3.7-.374q13.309,0,22.551,8.235t9.242,22.46q0,15.722-8.872,25.08T43.668,83.726Zm96.118,0q-19.593,0-29.39-14.412t-9.8-40.241q0-28.075,14.048-49.6T158.27-56.274l13.309,27.7Q153.834-20.713,144.962-9.3t-8.872,28.262a12.818,12.818,0,0,1,3.7-.374q13.309,0,22.551,8.235t9.242,22.46q0,15.722-8.872,25.08T139.786,83.726Z" transform="translate(-4.482 56.274)" fill="#f77821" opacity="0.2"/>
</svg>
