<svg xmlns="http://www.w3.org/2000/svg" xmlns:xlink="http://www.w3.org/1999/xlink" width="50" height="50" viewBox="0 0 50 50">
  <defs>
    <linearGradient id="linear-gradient" x1="0.5" y1="0.635" x2="0.5" y2="-0.365" gradientUnits="objectBoundingBox">
      <stop offset="0" stop-color="#f7e830"/>
      <stop offset="1" stop-color="#fdcb06"/>
    </linearGradient>
    <radialGradient id="radial-gradient" cx="0.496" cy="3.536" r="4.378" gradientUnits="objectBoundingBox">
      <stop offset="0.596" stop-color="#f29405"/>
      <stop offset="0.736" stop-color="#f7d01e"/>
      <stop offset="1" stop-color="#fdcb06"/>
    </radialGradient>
    <linearGradient id="linear-gradient-2" x1="0.491" y1="11.655" x2="0.499" y2="10.674" gradientUnits="objectBoundingBox">
      <stop offset="0" stop-color="#fada1c"/>
      <stop offset="1" stop-color="#fdcb06"/>
    </linearGradient>
    <linearGradient id="linear-gradient-3" x1="101.001" y1="11.748" x2="101.009" y2="10.768" xlink:href="#linear-gradient-2"/>
    <clipPath id="clip-path">
      <path id="Path_12623" data-name="Path 12623" d="M249.6,188.251a.4.4,0,0,1-.033-.186l-.03,0a.423.423,0,0,0-.361-.327c-.134-.011-.3-.007-.38.119-.149.2-.078.458-.086.685,0,.015,0,.041,0,.056a2.6,2.6,0,0,1-.045.45.32.32,0,0,0-.033.145,3.431,3.431,0,0,1-.361,1.012.375.375,0,0,0-.071.145,5.019,5.019,0,0,1-.383.551.474.474,0,0,0-.06.063,3.636,3.636,0,0,1-.309.324c-.026.015-.045.033-.067.048a2.421,2.421,0,0,1-.421.331c-.019.011-.037.026-.06.041a5.984,5.984,0,0,1-3.238.9,6.047,6.047,0,0,1-2.784-.588l-.067-.03a3.736,3.736,0,0,1-.428-.242c-.03-.015-.06-.034-.093-.048a2.841,2.841,0,0,1-.391-.275c-.041-.037-.086-.067-.13-.1a3.157,3.157,0,0,1-.387-.354c-.03-.034-.06-.063-.089-.093a3.709,3.709,0,0,1-.889-1.492,4.6,4.6,0,0,1-.156-1.392.5.5,0,0,0-.64-.193c-.093.067-.1.19-.175.275a4.371,4.371,0,0,0,1.247,3.338.06.06,0,0,0,.041.06c.149.138.294.279.443.413a.6.6,0,0,0,.089.074c.149.123.309.234.465.35a.79.79,0,0,0,.093.06,4.18,4.18,0,0,0,.618.342.481.481,0,0,0,.056.037,6.711,6.711,0,0,0,2.251.644,1.2,1.2,0,0,1,.257.026c.372.022.744.011,1.116,0a6.7,6.7,0,0,0,3.3-1.057l.011.015c.03-.026.056-.048.086-.071.153-.112.3-.231.45-.354a1.125,1.125,0,0,0,.1-.089,4.9,4.9,0,0,0,.491-.547l.022.011c.011-.019.03-.056.041-.074.126-.171.242-.35.354-.528.007-.011.026-.03.033-.041l-.015-.015c.011-.015.037-.045.048-.06a4.365,4.365,0,0,0,.45-1.314.064.064,0,0,0,.041-.06,3.5,3.5,0,0,0,.041-.439A2.533,2.533,0,0,0,249.6,188.251Z" transform="translate(-237.424 -187.737)"/>
    </clipPath>
  </defs>
  <g id="Group_6110" data-name="Group 6110" transform="translate(253 -3618)">
    <g id="facebook" transform="translate(-253 3618)">
      <circle id="Ellipse_412" data-name="Ellipse 412" cx="25" cy="25" r="25" transform="translate(0 0)" fill="#107bd4"/>
    </g>
    <g id="flipkart" transform="translate(-285.749 3582.781)">
      <path id="Path_12609" data-name="Path 12609" d="M71.12,166.712c-.011-.037-.022-.074-.037-.112q-13.224.006-26.44,0a.154.154,0,0,0-.041.086q0,10.254,0,20.5a1.659,1.659,0,0,0,.525.945c.011,0,.037.007.048.011a1.294,1.294,0,0,0,.521.283c.138-.007.272.052.409.037H57.042a.885.885,0,0,0,.313-.026c0-.015.007-.041.011-.056s.007-.06.011-.082c.234-1.31.461-2.624.711-3.933l.022-.167c-1.012,0-2.028,0-3.04,0-.246-.007-.5,0-.744-.03-.42-.019-.845,0-1.265-.045-.521,0-1.038-.048-1.559-.048-.409-.041-.822-.026-1.235-.045-.268-.033-.543-.019-.815-.03-.443-.048-.893-.015-1.336-.063-.469,0-.938-.037-1.407-.048a.053.053,0,0,0,.007-.022c.156,0,.309-.007.465-.011.346-.045.7-.015,1.042-.063.361,0,.718-.048,1.079-.048.32-.045.644-.019.964-.063.376,0,.744-.048,1.12-.052.309-.041.621-.019.93-.06.361,0,.718-.052,1.079-.048.354-.041.714-.03,1.068-.067-.033-.138-.06-.275-.089-.413-.026-.086-.13-.067-.2-.078q-1.211-.173-2.415-.342c.052-.041.123-.022.182-.03.625-.048,1.247-.1,1.872-.149.141-.007.279-.034.421-.037a4.86,4.86,0,0,0-.186-.584c-1.336-.2-2.672-.387-4-.607.346-.056.7-.082,1.042-.119l.03-.011c1.105-.115,2.214-.246,3.319-.354,1.4-.007,2.8,0,4.205,0,.045-.007.123.015.13-.048.115-.6.227-1.206.342-1.809a9.03,9.03,0,0,1,.8-2.426,7.155,7.155,0,0,1,2.769-2.962,7.978,7.978,0,0,1,3.658-1.02,5.748,5.748,0,0,1,1.239.026,1.732,1.732,0,0,1,.755.32,1.267,1.267,0,0,1,.357.558,8.885,8.885,0,0,1,.35,1.526,1.179,1.179,0,0,1-.071.633.8.8,0,0,1-.51.331c-.718.186-1.47.011-2.188.186a2.663,2.663,0,0,0-1.518.927,4.317,4.317,0,0,0-.808,1.92c-.1.61-.227,1.221-.327,1.835.707,0,1.418,0,2.129,0a.749.749,0,0,1,.688.424,2.046,2.046,0,0,1,.067,1.09,3.968,3.968,0,0,1-.339,1.18,1.332,1.332,0,0,1-.752.718,1.5,1.5,0,0,1-.562.056c-.625,0-1.25.007-1.876,0-.1.458-.167.927-.257,1.392-.164.9-.324,1.812-.487,2.72,0,.03-.007.093-.007.127.294.015.588,0,.882.007,2.181,0,4.365,0,6.55,0a1.3,1.3,0,0,0,.677-.164c.123-.045.2-.153.305-.212s.134-.182.223-.261a1.24,1.24,0,0,0,.2-.551.334.334,0,0,0,.056-.007C71.116,180.406,71.128,173.559,71.12,166.712Z" transform="translate(-0.117 -115.093)" stroke="#fcd109" stroke-width="0.094" fill="url(#linear-gradient)"/>
      <path id="Path_12610" data-name="Path 12610" d="M47.953,47.116a4.037,4.037,0,0,1,.971-.056q9.115.006,18.231,0a3.068,3.068,0,0,1,1.012.294c.268.108.547.194.815.309a.443.443,0,0,1,.138.112c0,.491,0,.986,0,1.481a1.253,1.253,0,0,0,.026.391c.078.011.119.071.171.119a5.04,5.04,0,0,1,.677.443c.335.238.692.447,1.02.692a.62.62,0,0,1-.026.287,1.549,1.549,0,0,0-.022.32q-13.224.006-26.44,0a1.294,1.294,0,0,0-.037-.361c-.007-.1-.041-.223.052-.29.372-.26.767-.495,1.131-.77.227-.145.447-.294.666-.443a.473.473,0,0,0,.03-.249c0-.54,0-1.079,0-1.619.127-.164.346-.182.521-.264.354-.134.711-.264,1.061-.4m.022.063c-.476.182-.956.357-1.433.54-.063.011-.1.067-.13.115,0,.03.007.082.007.112,0,.447,0,.893,0,1.34a.934.934,0,0,0,.03.324.923.923,0,0,1-.16.134c-.54.35-1.061.729-1.6,1.075-.093.056-.2.13-.167.253-.019.067.015.123.086.1,1.169-.007,2.333.007,3.5-.011,1.738,0,3.472,0,5.21,0l.026-.011a1.013,1.013,0,0,0,.238.011q4.722,0,9.448,0c.99,0,1.984,0,2.977,0,1.637,0,3.279.015,4.916.007.048-.011.063-.045.045-.1s.019-.141-.045-.179c-.26-.123-.484-.313-.733-.461-.089-.074-.2-.115-.272-.216-.257-.145-.495-.324-.748-.484a.758.758,0,0,1-.126-.119.907.907,0,0,0,.03-.246c0-.473,0-.945,0-1.418a.206.206,0,0,0-.06-.208c-.447-.16-.889-.331-1.332-.495a1.522,1.522,0,0,0-.439-.127H48.217A1.452,1.452,0,0,0,47.975,47.179Z" fill="#f8f3b5" stroke="#f8f3b5" stroke-width="0.094"/>
      <path id="Path_12611" data-name="Path 12611" d="M96.6,70.9c.327.138.677.216,1.008.35.179.071.234.264.313.421a1.548,1.548,0,0,1-.264.2c-.342.231-.692.454-1.031.692a.934.934,0,0,1-.03-.324C96.6,71.793,96.6,71.347,96.6,70.9Zm21.64.35c.331-.13.677-.22,1.009-.35,0,.473,0,.945,0,1.418a.907.907,0,0,1-.03.246c-.29-.2-.584-.391-.875-.588a3.429,3.429,0,0,1-.424-.309C118,71.51,118.063,71.321,118.241,71.25Z" transform="translate(-50.182 -22.954)" fill="#f7b402" stroke="#f7b402" stroke-width="0.094"/>
      <path id="Path_12612" data-name="Path 12612" d="M235.059,83.98a.7.7,0,0,1,.834.7.709.709,0,0,1-.845.666.809.809,0,0,1-.421-.287.7.7,0,0,1-.056-.677A.665.665,0,0,1,235.059,83.98Zm10.617.234a.715.715,0,0,1,.7-.231.7.7,0,0,1,.175,1.284.719.719,0,0,1-.856-.145A.708.708,0,0,1,245.676,84.215Z" transform="translate(-182.96 -35.532)" fill="#bda727" stroke="#bda727" stroke-width="0.094"/>
      <path id="Path_12613" data-name="Path 12613" d="M48.424,91.7a1.55,1.55,0,0,0,.264-.2l.026.026c.026.194.007.391.015.584-.011.581.011,1.165-.015,1.745-1.083,0-2.166-.007-3.249,0-.03-.123.074-.2.167-.253.54-.346,1.061-.726,1.6-1.075a.921.921,0,0,0,.16-.134C47.732,92.159,48.082,91.935,48.424,91.7Zm20.229-.074a.231.231,0,0,1,.037-.13,3.435,3.435,0,0,0,.424.309c.29.2.584.387.875.588a.765.765,0,0,0,.126.119c.253.16.491.339.748.484.067.1.182.141.272.216.249.149.473.339.733.461.063.037.041.119.045.179-1.083,0-2.162,0-3.245,0a4.421,4.421,0,0,1-.011-.443c0-.6-.007-1.191,0-1.786Z" transform="translate(-0.948 -42.787)" fill="#f7e62d" stroke="#f7e62d" stroke-width="0.094"/>
      <path id="Path_12614" data-name="Path 12614" d="M71.913,52.552c-1.083,0-2.162,0-3.245,0a4.429,4.429,0,0,1-.011-.443c0-.6-.007-1.191,0-1.786a.231.231,0,0,1,.037-.13c.078-.156.138-.346.316-.417.331-.13.677-.22,1.009-.35a.206.206,0,0,0-.06-.208c-.447-.16-.889-.331-1.332-.495a1.521,1.521,0,0,0-.439-.127H49.164a1.449,1.449,0,0,0-.242.063c-.476.182-.956.357-1.433.54-.063.011-.1.067-.13.115,0,.03.007.082.007.112.327.138.677.216,1.008.35.179.071.234.264.313.421l.026.026c.026.194.007.391.015.584-.011.581.011,1.165-.015,1.745-1.083,0-2.166-.007-3.249,0-.019.067.015.123.086.1,1.168-.007,2.333.007,3.5-.011,1.738,0,3.472,0,5.21,0l.026-.011a1.013,1.013,0,0,0,.238.011q4.722,0,9.448,0c.99,0,1.984,0,2.977,0,1.637,0,3.279.015,4.916.007C71.916,52.645,71.931,52.612,71.913,52.552ZM52.558,50.33a.665.665,0,0,1,.487-.4.7.7,0,0,1,.834.7.709.709,0,0,1-.845.666.809.809,0,0,1-.421-.287A.7.7,0,0,1,52.558,50.33Zm11.1-.164a.715.715,0,0,1,.7-.231.7.7,0,0,1,.175,1.284.719.719,0,0,1-.856-.145A.708.708,0,0,1,63.662,50.167Z" transform="translate(-0.947 -1.484)" stroke="#fcd109" stroke-width="0.094" fill="url(#radial-gradient)"/>
      <path id="Path_12615" data-name="Path 12615" d="M554.495,188.226c.052.011-.271-.311-.208-.325a.694.694,0,0,1,.558-.025c.273.143.205.478.174.6a.672.672,0,0,1-.205.316.359.359,0,0,1-.189.082c.034-.182-.074-.212-.082-.4Z" transform="translate(-490.831 -135.523)" stroke="#fcd109" stroke-width="0.094" fill="url(#linear-gradient-2)"/>
      <path id="Path_12616" data-name="Path 12616" d="M227.317,187.144c-.007.186-.115.216-.082.4a.359.359,0,0,1-.189-.082.673.673,0,0,1-.205-.316c-.031-.124-.1-.459.174-.6a.694.694,0,0,1,.558.025c.063.015-.26.337-.208.325Z" transform="translate(-175.549 -134.239)" stroke="#fcd109" stroke-width="0.094" fill="url(#linear-gradient-3)"/>
      <path id="Path_12617" data-name="Path 12617" d="M274.05,261.549a.206.206,0,0,1,.168-.049,8.674,8.674,0,0,1-1.751,2.688,2.634,2.634,0,0,1-.265.208c-.09.066-.178.127-.265.19s-.171.119-.253.182a3.482,3.482,0,0,1-.633.346,5.942,5.942,0,0,1-1.354.439,3.976,3.976,0,0,1-.555.078,3.246,3.246,0,0,1-.711.034c-.13.022-.246-.052-.372-.037q-.165-.023-.328-.056t-.329-.078a5.7,5.7,0,0,1-3.868-3.6,1.984,1.984,0,0,1-.033-.36q.078.156.162.31a5.457,5.457,0,0,0,3.7,3.063c.132.06.275.039.4.091a1.04,1.04,0,0,1,.339.034c.383.007.767,0,1.15,0a.56.56,0,0,0,.153-.034,4.9,4.9,0,0,0,1.848-.46q.175-.079.344-.169.148-.078.289-.169t.269-.19a6.164,6.164,0,0,0,1.689-2.066C273.917,261.806,273.988,261.67,274.05,261.549Z" transform="translate(-210.873 -206.461)" fill="#bda727" stroke="#bda727" stroke-width="0.094"/>
      <path id="Path_12618" data-name="Path 12618" d="M230.6,324.753a7.977,7.977,0,0,1,3.658-1.02,5.738,5.738,0,0,1,1.239.026,1.731,1.731,0,0,1,.755.32,1.607,1.607,0,0,1-.32-.056,5.548,5.548,0,0,0-.93-.045,9.771,9.771,0,0,0-2.668.316,6.261,6.261,0,0,0-1.321.536,6.594,6.594,0,0,0-1.879,1.541,8.065,8.065,0,0,0-1.742,3.8c-.126.74-.272,1.477-.387,2.222-.186.019-.376.008-.562.008q-1.228-.006-2.456-.015c-.175.007-.346-.033-.521-.022-1.489.007-2.977,0-4.466,0l.03-.011c1.105-.115,2.214-.246,3.319-.353,1.4-.007,2.8,0,4.205,0,.045-.007.123.015.13-.048.115-.6.227-1.206.342-1.809a9.032,9.032,0,0,1,.8-2.426A7.156,7.156,0,0,1,230.6,324.753Z" transform="translate(-168.029 -266.357)" fill="#0d69b3" stroke="#0d69b3" stroke-width="0.094"/>
      <path id="Path_12619" data-name="Path 12619" d="M119.019,331.216a9.771,9.771,0,0,1,2.668-.316,5.551,5.551,0,0,1,.93.045,1.605,1.605,0,0,0,.32.056,1.267,1.267,0,0,1,.357.558,8.886,8.886,0,0,1,.35,1.526,1.179,1.179,0,0,1-.071.633.8.8,0,0,1-.51.331c-.718.186-1.47.011-2.188.186a2.663,2.663,0,0,0-1.518.927,4.317,4.317,0,0,0-.808,1.92c-.1.61-.227,1.221-.327,1.835a3.308,3.308,0,0,0-.1.432c.7.011,1.407,0,2.11.007.268-.007.536.007.8-.011a2.046,2.046,0,0,1,.067,1.09,3.969,3.969,0,0,1-.339,1.18,1.332,1.332,0,0,1-.752.718,1.5,1.5,0,0,1-.562.056c-.625,0-1.25.007-1.876,0-.1.458-.167.927-.257,1.392-.164.9-.324,1.812-.487,2.72,0,.03-.007.093-.007.127v0c-1.626,0-3.249,0-4.875,0,0-.015.007-.041.011-.056s.007-.06.011-.082c0,.03.007.086.011.112.1.011.283.063.309-.082.253-1.369.488-2.746.748-4.116a.782.782,0,0,0-.309,0c-.015.052-.03.1-.048.156l.022-.167c-1.012,0-2.028,0-3.04,0-.246-.007-.5,0-.744-.03-.421-.019-.845,0-1.265-.045-.521,0-1.038-.048-1.559-.048-.409-.041-.822-.026-1.235-.045-.268-.033-.543-.019-.815-.03-.443-.048-.893-.015-1.336-.063-.469,0-.938-.037-1.407-.048a.053.053,0,0,0,.007-.022c.156,0,.309-.007.465-.011.346-.045.7-.015,1.042-.063.361,0,.718-.048,1.079-.048.32-.045.644-.019.964-.063.376,0,.744-.048,1.12-.052.309-.041.621-.019.93-.06.361,0,.718-.052,1.079-.048.354-.041.714-.03,1.068-.067-.033-.138-.06-.275-.089-.413-.026-.086-.13-.067-.2-.078q-1.211-.173-2.415-.342c.052-.041.123-.022.182-.03.625-.049,1.247-.1,1.872-.149.141-.008.279-.034.421-.037a4.864,4.864,0,0,0-.186-.584c-1.336-.2-2.672-.387-4-.607.346-.056.7-.082,1.042-.119,1.489,0,2.977.011,4.466,0,.175-.011.346.03.521.022q1.228.011,2.456.015c.186,0,.376.011.562-.007.115-.744.261-1.481.387-2.222a8.064,8.064,0,0,1,1.742-3.8,6.593,6.593,0,0,1,1.879-1.541A6.262,6.262,0,0,1,119.019,331.216Z" transform="translate(-54.715 -273.279)" fill="#107bd4" stroke="#107bd4" stroke-width="0.094"/>
      <path id="Path_12620" data-name="Path 12620" d="M394.248,546.3c.707,0,1.418,0,2.129,0a.749.749,0,0,1,.688.424c-.268.019-.536,0-.8.011-.7-.007-1.407,0-2.11-.007A3.288,3.288,0,0,1,394.248,546.3Zm-5.489,3.487a.783.783,0,0,1,.309,0c-.26,1.37-.495,2.746-.748,4.116-.026.145-.208.093-.309.082,0-.026-.008-.082-.011-.112.234-1.31.461-2.624.711-3.933.019-.052.034-.1.048-.156Z" transform="translate(-330.74 -480.662)" fill="#0d69b3" stroke="#0d69b3" stroke-width="0.094"/>
      <path id="Path_12621" data-name="Path 12621" d="M249.6,188.251a.4.4,0,0,1-.033-.186l-.03,0a.423.423,0,0,0-.361-.327c-.134-.011-.3-.007-.38.119-.149.2-.078.458-.086.685,0,.015,0,.041,0,.056a2.6,2.6,0,0,1-.045.45.32.32,0,0,0-.033.145,3.431,3.431,0,0,1-.361,1.012.375.375,0,0,0-.071.145,5.019,5.019,0,0,1-.383.551.474.474,0,0,0-.06.063,3.636,3.636,0,0,1-.309.324c-.026.015-.045.033-.067.048a2.421,2.421,0,0,1-.421.331c-.019.011-.037.026-.06.041a5.984,5.984,0,0,1-3.238.9,6.047,6.047,0,0,1-2.784-.588l-.067-.03a3.736,3.736,0,0,1-.428-.242c-.03-.015-.06-.034-.093-.048a2.841,2.841,0,0,1-.391-.275c-.041-.037-.086-.067-.13-.1a3.157,3.157,0,0,1-.387-.354c-.03-.034-.06-.063-.089-.093a3.709,3.709,0,0,1-.889-1.492,4.6,4.6,0,0,1-.156-1.392.5.5,0,0,0-.64-.193c-.093.067-.1.19-.175.275a4.371,4.371,0,0,0,1.247,3.338.06.06,0,0,0,.041.06c.149.138.294.279.443.413a.6.6,0,0,0,.089.074c.149.123.309.234.465.35a.79.79,0,0,0,.093.06,4.18,4.18,0,0,0,.618.342.481.481,0,0,0,.056.037,6.711,6.711,0,0,0,2.251.644,1.2,1.2,0,0,1,.257.026c.372.022.744.011,1.116,0a6.7,6.7,0,0,0,3.3-1.057l.011.015c.03-.026.056-.048.086-.071.153-.112.3-.231.45-.354a1.125,1.125,0,0,0,.1-.089,4.9,4.9,0,0,0,.491-.547l.022.011c.011-.019.03-.056.041-.074.126-.171.242-.35.354-.528.007-.011.026-.03.033-.041l-.015-.015c.011-.015.037-.045.048-.06a4.365,4.365,0,0,0,.45-1.314.064.064,0,0,0,.041-.06,3.5,3.5,0,0,0,.041-.439A2.533,2.533,0,0,0,249.6,188.251Z" transform="translate(-185.768 -135.443)" fill="#fff" stroke="#fff" stroke-width="0.094"/>
      <g id="Group_6109" data-name="Group 6109" transform="translate(51.657 52.294)" clip-path="url(#clip-path)">
        <path id="Path_12622" data-name="Path 12622" d="M230.167,187.257c.3.095.995-.143,1.191.074m-1.017.844c.289-.1.909-.339,1.166-.2m-.868,1.116c.14.045.415-.2.552-.272a2.032,2.032,0,0,1,.639-.224m-.744,1.464a2.1,2.1,0,0,1,.525-.52c.206-.144.771-.529,1.013-.4m-1.116,1.613c.164-.13.23-.36.4-.5a3.506,3.506,0,0,1,.739-.3m-.44,1.309c.049-.36.414-.794.763-.763m-.223,1.265c.184-.018.34-.431.465-.571a1.186,1.186,0,0,1,.627-.347m-.025,1.365c-.012-.26.257-1.007.571-.968m.223,1.216c-.013-.308.146-1.233.521-1.265m.3,1.761a1.6,1.6,0,0,1,.273-1.365m.744,1.464c-.038-.359-.394-1.084,0-1.364m1.092,1.116a2.065,2.065,0,0,1-.2-1.191m1.24,1.017a2.473,2.473,0,0,1-.344-.739c-.03-.165.022-.4,0-.527m1.216.893a1.3,1.3,0,0,1-.273-1.166m1.116.794a2.894,2.894,0,0,1-.422-1.265m1.24.471c-.315-.212-.716-.6-.67-1.017m1.538.347a2.671,2.671,0,0,1-1.34-.918m1.737.1c-.345-.074-1.484-.518-1.414-.968m1.786.1a5.258,5.258,0,0,1-1.563-.67m1.811-.124a4.856,4.856,0,0,1-1.044-.174c-.342-.059-.658-.174-.991-.248m1.737-.347a4.338,4.338,0,0,1-1.662-.347" transform="translate(-230.437 -186.869)" fill="none" stroke="#d1d1d1" stroke-width="2"/>
      </g>
    </g>
  </g>
</svg>
