<svg xmlns="http://www.w3.org/2000/svg" xmlns:xlink="http://www.w3.org/1999/xlink" width="17" height="21" viewBox="0 0 17 21">
    <defs>
        <path id="a" d="M0 0h17v21H0z"/>
    </defs>
    <g fill="none" fill-rule="evenodd">
        <mask id="b" fill="#fff">
            <use xlink:href="#a"/>
        </mask>
        <path fill="#FFF" d="M11.366 8.383H5.634V5.857c0-1.477 1.286-2.68 2.866-2.68s2.866 1.203 2.866 2.68v2.526zm-2.073 6.942l.237 2.28H7.47l.236-2.28c-.698-.286-1.186-.938-1.186-1.696 0-1.023.886-1.851 1.98-1.851 1.094 0 1.98.828 1.98 1.851 0 .759-.488 1.41-1.187 1.696zm5.472-6.942V5.857C14.765 2.622 11.96 0 8.5 0 5.04 0 2.235 2.622 2.235 5.857v2.526H0V21h17V8.383h-2.235z" mask="url(#b)"/>
    </g>
</svg>
