<svg xmlns="http://www.w3.org/2000/svg" width="41" height="41" viewBox="0 0 41 41">
    <g fill="none" fill-rule="evenodd">
        <path fill-rule="nonzero" stroke="#979797" d="M20.5 40c-1.794 0-3.523-.234-5.187-.702a19.781 19.781 0 0 1-4.66-1.97 19.442 19.442 0 0 1-3.94-3.042 19.438 19.438 0 0 1-3.042-3.939 19.775 19.775 0 0 1-1.969-4.66A19.066 19.066 0 0 1 1 20.5c0-1.794.234-3.523.702-5.187a19.773 19.773 0 0 1 1.97-4.66 19.442 19.442 0 0 1 3.041-3.94 19.442 19.442 0 0 1 3.94-3.042 19.773 19.773 0 0 1 4.66-1.969A19.067 19.067 0 0 1 20.5 1c2.678 0 5.206.513 7.585 1.54 2.38 1.027 4.447 2.418 6.201 4.173 1.755 1.755 3.146 3.823 4.173 6.202C39.486 15.293 40 17.822 40 20.5c0 1.794-.234 3.523-.702 5.187a19.788 19.788 0 0 1-1.97 4.66 19.442 19.442 0 0 1-3.042 3.94 19.431 19.431 0 0 1-3.939 3.041 19.774 19.774 0 0 1-4.66 1.97A19.065 19.065 0 0 1 20.5 40z"/>
        <path fill="#000" fill-opacity=".54" d="M29.8 12H12.2c-1.21 0-2.189.956-2.189 2.125L10 26.875c0 1.169.99 2.125 2.2 2.125h17.6c1.21 0 2.2-.956 2.2-2.125v-12.75C32 12.956 31.01 12 29.8 12zm.57 4.51l-8.963 5.204-8.963-5.204V14.43l8.963 5.204 8.963-5.204v2.081z"/>
    </g>
</svg>