<svg xmlns="http://www.w3.org/2000/svg" width="86" height="70" viewBox="0 0 86 70">
    <g fill="none" fill-rule="nonzero">
        <path stroke="#F15A22" stroke-width="3" d="M81.922 4.02C80.585 2.672 78.978 2 77.101 2H8.827c-1.877 0-3.484.673-4.822 2.02C2.668 5.365 2 6.983 2 8.874v52.25c0 1.89.668 3.509 2.005 4.855C5.343 67.327 6.95 68 8.827 68h68.274c1.877 0 3.484-.673 4.821-2.02 1.337-1.346 2.006-2.964 2.006-4.855V8.875c0-1.891-.67-3.51-2.006-4.856zM2.072 28.474v-9.45c0-.366.156-.682.468-.95.312-.266.681-.4 1.107-.4h78.778c.426 0 .796.133 1.107.4.312.268.468.584.468.95v9.45H2.072z"/>
        <path fill="#F15A22" d="M13 51h12v6H13zM29 51h17v6H29z"/>
    </g>
</svg>
