<svg xmlns="http://www.w3.org/2000/svg" width="107" height="77" viewBox="0 0 107 77">
    <g fill="none" fill-rule="nonzero">
        <path fill="#F15A22" d="M25 55c-6.067 0-11 4.933-11 11s4.933 11 11 11 11-4.933 11-11-4.934-11-11-11zm0 18.333A7.34 7.34 0 0 1 17.667 66 7.34 7.34 0 0 1 25 58.667c4.044 0 7.333 3.289 7.333 7.333 0 4.044-3.289 7.333-7.333 7.333zM85 55c-6.067 0-11 4.933-11 11s4.933 11 11 11 11-4.933 11-11-4.933-11-11-11zm0 18.333A7.34 7.34 0 0 1 77.667 66 7.34 7.34 0 0 1 85 58.667 7.34 7.34 0 0 1 92.333 66 7.34 7.34 0 0 1 85 73.333z"/>
        <path fill="#F15A22" d="M106.718 45.24L90.764 19.834A1.763 1.763 0 0 0 89.273 19h-19.5c-.98 0-1.773.813-1.773 1.815v45.37c0 1.004.792 1.815 1.773 1.815h7.09v-3.63h-5.318V22.63h16.76l15.15 24.126V64.37H94.59V68h10.636c.98 0 1.773-.811 1.773-1.815V46.222c0-.346-.097-.69-.282-.981z"/>
        <path fill="#F15A22" d="M78.5 43.546V31.455h14V28H76.75c-.968 0-1.75.774-1.75 1.727v15.546c0 .955.782 1.727 1.75 1.727H103v-3.455H78.5zM69.225 7H1.775C.795 7 0 7.79 0 8.765v56.47A1.77 1.77 0 0 0 1.775 67h14.2v-3.53H3.55V10.53h63.9v52.94H33.725V67h35.5c.982 0 1.775-.789 1.775-1.765V8.765A1.77 1.77 0 0 0 69.225 7z"/>
        <path fill="#F15A22" d="M1 58h11v3H1zM37 58h30v3H37z"/>
        <path fill="#F27B25" d="M98 58h7v3h-7z"/>
        <path fill="#F15A22" d="M7 15h62v3H7z"/>
        <path fill="#F27B25" d="M24 65h3v3h-3zM84 65h3v3h-3z"/>
        <path fill="#F15A22" d="M7 0h25v3H7zM0 0h3v3H0z"/>
    </g>
</svg>
