<svg xmlns="http://www.w3.org/2000/svg" width="54" height="52" viewBox="0 0 54 52">
    <g fill="none" fill-rule="evenodd">
        <path fill="#FFF" d="M53 39.314V52H1V39.314c.512.251 1.016.697 1.537.72 2.035.084 4.083-.073 6.112.064 2.103.142 3.945-.125 5.225-2.003.031-.045.133-.043.315-.095.461.492.921 1.07 1.474 1.538.318.27.787.508 1.188.508 11.577.027 23.152.03 34.728-.01.475-.002.947-.471 1.421-.722M1 12.399V0h52v12.629c-.357-.779-1.043-.758-1.756-.758-10.727.008-21.456.058-32.182-.04-2.028-.019-3.68.28-4.88 1.99-.034.048-.125.057-.416.179-.228-.291-.522-.645-.79-1.017-.669-.928-1.564-1.164-2.69-1.13-2.536.076-5.076-.007-7.612.048-.562.012-1.116.324-1.674.498"/>
        <path stroke="#474747" stroke-width="1.5" d="M1 12.568c.558-.173 1.112-.485 1.674-.497 2.536-.055 5.076.028 7.612-.048 1.126-.034 2.021.202 2.69 1.128.268.372.562.725.79 1.016.291-.122.382-.13.416-.178 1.2-1.708 2.852-2.007 4.88-1.988 10.726.098 21.455.048 32.182.04.713 0 1.4-.02 1.756.757v26.39c-.474.25-.946.716-1.42.718a5999.5 5999.5 0 0 1-34.729.01c-.401 0-.87-.237-1.188-.505-.553-.465-1.013-1.04-1.474-1.53-.182.052-.284.05-.315.094-1.28 1.868-3.122 2.134-5.225 1.993-2.03-.136-4.077.02-6.112-.064-.521-.022-1.025-.466-1.537-.716v-26.62z"/>
        <path stroke="#474747" stroke-width="1.5" d="M38.956 27c2.276-.008 4.038 1.724 4.044 3.977.006 2.211-1.827 4.038-4.037 4.023-2.24-.015-3.97-1.79-3.963-4.066.006-2.215 1.727-3.926 3.956-3.934zM28.97 25A3.978 3.978 0 0 1 25 20.95c.03-2.134 1.856-3.938 4.002-3.951 2.206-.013 3.997 1.796 3.998 4.037 0 2.247-1.765 3.983-4.03 3.963zM26 34l16-16"/>
    </g>
</svg>
