<svg xmlns="http://www.w3.org/2000/svg" width="113" height="63" viewBox="0 0 113 63">
    <g fill="none" fill-rule="evenodd">
        <path stroke="#7A7D7D" stroke-width="1.5" d="M1 2.238C2.192 1.86 3.378 1.18 4.579 1.154c5.423-.118 10.855.062 16.276-.104 2.409-.073 4.323.44 5.75 2.458.575.81 1.205 1.58 1.692 2.214.623-.266.817-.284.89-.39 2.565-3.72 6.097-4.37 10.433-4.33 22.936.214 45.876.106 68.814.088 1.524-.001 2.992-.046 3.754 1.648V60.23c-1.012.545-2.023 1.56-3.037 1.564-24.752.09-49.504.081-74.257.024-.858-.002-1.86-.518-2.54-1.1-1.183-1.015-2.166-2.268-3.154-3.335-.387.113-.606.108-.672.206-2.737 4.07-6.675 4.649-11.173 4.34-4.339-.295-8.717.044-13.068-.14C3.172 61.743 2.095 60.776 1 60.23V2.238z"/>
        <text fill="#7A7D7D" font-family="HelveticaNeue, Helvetica Neue" font-size="21" transform="translate(1 1)">
            <tspan x="47.813" y="31">30%</tspan>
        </text>
        <path stroke="#7A7D7D" stroke-dasharray="4" stroke-linecap="square" d="M28.5 5.5v51"/>
    </g>
</svg>
