<svg xmlns="http://www.w3.org/2000/svg" width="41" height="41" viewBox="0 0 41 41">
    <g fill="none" fill-rule="nonzero" transform="translate(1 1)">
        <circle cx="19.5" cy="19.5" r="19.5" stroke="#7A7D7D"/>
        <path fill="#7A7D7D" d="M21.67 25.407c-1.564-.113-2.222-.837-3.45-1.533-.674 3.304-1.498 6.471-3.94 8.126-.755-4.994 1.106-8.745 1.97-12.726-1.472-2.315.178-6.975 3.285-5.826 3.824 1.411-3.311 8.607 1.479 9.506 5 .939 7.041-8.1 3.94-11.04-4.48-4.244-13.041-.096-11.989 5.98.257 1.485 1.901 1.936.657 3.986-2.867-.593-3.723-2.704-3.613-5.519.178-4.608 4.435-7.834 8.705-8.28 5.4-.565 10.47 1.851 11.169 6.593.787 5.353-2.438 11.15-8.212 10.733z"/>
    </g>
</svg>