<svg xmlns="http://www.w3.org/2000/svg" width="28" height="20" viewBox="0 0 28 20">
    <g fill="#F27B25" fill-rule="nonzero">
        <path d="M7 14c-1.655 0-3 1.345-3 3s1.345 3 3 3 3-1.345 3-3-1.346-3-3-3zm0 5c-1.103 0-2-.897-2-2s.897-2 2-2 2 .897 2 2-.897 2-2 2zM22 14c-1.655 0-3 1.345-3 3s1.345 3 3 3 3-1.345 3-3-1.345-3-3-3zm0 5c-1.103 0-2-.897-2-2s.897-2 2-2 2 .897 2 2-.897 2-2 2z"/>
        <path d="M27.92 11.962l-4.5-6.741A.505.505 0 0 0 23 5h-5.5a.49.49 0 0 0-.5.481v12.037a.49.49 0 0 0 .5.482h2v-.963H18V5.963h4.727l4.273 6.4v4.674h-2.5V18h3a.49.49 0 0 0 .5-.481v-5.297a.468.468 0 0 0-.08-.26z"/>
        <path d="M19.875 12.09V8.91h3.5V8h-3.938a.446.446 0 0 0-.437.455v4.09c0 .252.196.455.437.455H26v-.91h-6.125z"/>
        <path d="M18.525 2H.475C.213 2 0 2.198 0 2.441V16.56c0 .244.213.441.475.441h3.8v-.882H.95V2.882h17.1v13.236H9.025V17h9.5c.263 0 .475-.197.475-.441V2.44c0-.243-.212-.441-.475-.441z"/>
        <path d="M1 14h3v1H1zM10 14h8v1h-8zM25 14h2v1h-2zM2 4h16v1H2zM7 16h1v1H7zM22 16h1v1h-1zM2 0h7v1H2zM0 0h1v1H0z"/>
    </g>
</svg>
