<svg xmlns="http://www.w3.org/2000/svg" width="42" height="42" viewBox="0 0 42 42">
    <path fill="none" fill-rule="evenodd" stroke="#474747" stroke-width="1.5" d="M12.989 33a3.988 3.988 0 0 0-3.99 4c0 2.208 1.776 4 3.99 4a4.005 4.005 0 0 0 4.01-4c0-2.21-1.794-4-4.01-4m20 0a3.988 3.988 0 0 0-3.99 4c0 2.208 1.776 4 3.99 4a4.005 4.005 0 0 0 4.01-4c0-2.21-1.794-4-4.01-4M5.001 1H.999v4.131h4.002l7.195 15.682L9.49 25.88A4.263 4.263 0 0 0 9 27.867C9 30.148 10.792 32 13 32h23.997v-4.133H13.846a.506.506 0 0 1-.498-.517l.06-.25 1.796-3.367H30.1c1.504 0 2.816-.857 3.5-2.126l7.147-13.41a2.08 2.08 0 0 0 .252-.997c0-1.143-.896-2.069-2.002-2.069H9.427l-.813-1.765C7.976 1.967 6.596 1 5.001 1"/>
</svg>
