<svg xmlns="http://www.w3.org/2000/svg" data-name="Layer 1" viewBox="0 0 512 512"><path d="M262.42578,169.26123a12.25539,12.25539,0,0,0-20.72558,8.85889v16.52661l-26.50293-25.38111a12.25415,12.25415,0,0,0-20.7295,8.8501V333.88428a12.2518,12.2518,0,0,0,20.7295,8.84961L241.7002,317.353v16.52685a12.25257,12.25257,0,0,0,20.72753,8.85645l81.335-77.894a12.25521,12.25521,0,0,0-.00489-17.689Zm-52.958,158.19043V184.54834L284.07812,256Zm47.23243.00049V302.98779l39.82421-38.13818a12.253,12.253,0,0,0,0-17.69922L256.7002,209.01172V184.54785L331.30859,256Zm253.10351,90.18457-81.55957-81.56006a7.50013,7.50013,0,0,0-12.80371,5.30322V378.8501H362.25684A162.1833,162.1833,0,0,0,418.5,256c0-89.60254-72.89746-162.5-162.5-162.5a161.5181,161.5181,0,0,0-85.94409,24.6499H89.05957a7.49974,7.49974,0,0,0-7.5,7.5v26.86377L18.10645,89.06006,81.55957,25.60645V52.47021a7.49974,7.49974,0,0,0,7.5,7.5H223.88965a7.5,7.5,0,0,0,0-15H96.55957V7.5A7.50013,7.50013,0,0,0,83.75586,2.19678L2.19629,83.75684a7.50021,7.50021,0,0,0,0,10.60644l81.55957,81.56006a7.50013,7.50013,0,0,0,12.80371-5.30322V133.1499h53.18372A162.183,162.183,0,0,0,93.5,256c0,89.60254,72.89746,162.5,162.5,162.5a161.5181,161.5181,0,0,0,85.94409-24.6499h80.99634a7.49974,7.49974,0,0,0,7.5-7.5V359.48633l63.45312,63.45361-63.45312,63.45361V459.52979a7.49974,7.49974,0,0,0-7.5-7.5H288.11035a7.5,7.5,0,0,0,0,15H415.44043V504.5a7.50023,7.50023,0,0,0,12.80371,5.30322l81.55957-81.56006A7.50021,7.50021,0,0,0,509.80371,417.63672ZM256,403.5c-81.332,0-147.5-66.16846-147.5-147.5S174.668,108.5,256,108.5,403.5,174.66846,403.5,256,337.332,403.5,256,403.5Z"/></svg>
