<svg xmlns="http://www.w3.org/2000/svg" xmlns:xlink="http://www.w3.org/1999/xlink" width="58" height="68" viewBox="0 0 58 68">
    <defs>
        <path id="a" d="M.093.113h17.851v14.844H.093z"/>
    </defs>
    <g fill="none" fill-rule="evenodd">
        <path fill="#F15A22" d="M8.116 54.122l4.254 6.744 2.15-1.438a11.278 11.278 0 0 1 6.258-1.898h9.158c4.297 0 8.48-.849 12.43-2.502l3.808-1.596 9.042-8.066c.115-.1.144-.23.144-.302a.39.39 0 0 0-.13-.302.436.436 0 0 0-.519-.043l-7.153 4.888a3.419 3.419 0 0 1-2.855 3.207l-12.922 2.2c-.706.115-1.399-.36-1.514-1.064a1.308 1.308 0 0 1 1.067-1.51l12.922-2.2a.815.815 0 0 0 .678-.79.805.805 0 0 0-.808-.806h-8.09c-2.35 0-4.63-.963-6.144-1.768a3.803 3.803 0 0 0-1.831-.46h-3.447c-2.682 0-5.307.747-7.585 2.17l-8.913 5.536zM11.981 64a1.3 1.3 0 0 1-1.11-.618l-5.668-8.987a1.322 1.322 0 0 1-.173-.992 1.3 1.3 0 0 1 .577-.82l10.052-6.268a16.917 16.917 0 0 1 8.97-2.56h3.446a6.55 6.55 0 0 1 3.086.777c1.01.546 2.985 1.452 4.889 1.452h8.09c.981 0 1.86.403 2.48 1.064l6.62-4.515a3.033 3.033 0 0 1 3.793.288c.62.575.98 1.395.967 2.243a3.073 3.073 0 0 1-1.01 2.229l-9.215 8.21c-.101.1-.231.172-.361.23l-4.01 1.682a34.607 34.607 0 0 1-13.454 2.717h-9.158a8.727 8.727 0 0 0-4.816 1.452l-3.274 2.172a1.122 1.122 0 0 1-.72.244z"/>
        <path fill="#F15A22" d="M3.138 54.904l5.84 10.019 1.866-.977-6.099-9.873-1.607.831zM8.49 68a1.29 1.29 0 0 1-1.12-.656L.181 55.035a1.349 1.349 0 0 1 .532-1.866l3.903-2.027a1.293 1.293 0 0 1 1.693.48l7.491 12.12c.201.32.244.7.158 1.05-.1.364-.33.656-.66.83l-4.22 2.218c-.186.116-.387.16-.587.16zM13.344 50c-.31 0-.635-.116-.875-.363-.14-.13-3.497-3.443-3.469-9.863.028-8.207 5.373-17.431 15.88-27.425.24-.233.55-.349.874-.349h3.963c.705 0 1.283.596 1.283 1.322 0 .726-.578 1.322-1.283 1.322h-3.455c-12.1 11.62-14.667 20.075-14.681 25.144-.014 5.288 2.637 7.902 2.665 7.917.522.494.55 1.336.057 1.874-.282.29-.621.421-.96.421"/>
        <path fill="#F15A22" d="M47.628 50c-.338 0-.69-.145-.93-.421a1.352 1.352 0 0 1 .056-1.86c.113-.116 2.722-2.76 2.665-8.032-.042-5.056-2.651-13.48-14.68-25.043h-3.456c-.705 0-1.283-.596-1.283-1.322 0-.726.578-1.322 1.283-1.322h3.963c.325 0 .635.13.875.349C46.627 22.343 51.97 31.567 52 39.774c.014 6.42-3.328 9.718-3.47 9.863a1.332 1.332 0 0 1-.902.363"/>
        <g transform="translate(20)">
            <mask id="b" fill="#fff">
                <use xlink:href="#a"/>
            </mask>
            <path fill="#F15A22" d="M5.547 14.957c-.44 0-.88-.243-1.1-.686C2.565 10.657-.485 4.257.187 2.114.918-.17 3.418.43 5.259.857c.962.229 2.034.486 2.748.386C8.515 1.17 9.202 1 9.93.814 12.582.157 16.21-.757 17.597 1.9c1.402 2.671-1.8 9.529-3.229 12.357-.33.629-1.085.872-1.69.543a1.343 1.343 0 0 1-.522-1.757c2.17-4.272 3.723-8.986 3.243-9.9-.481-.914-3.243-.214-4.892.2-.797.2-1.539.386-2.185.471-1.154.157-2.404-.143-3.627-.428-.646-.157-1.69-.4-2.13-.357.014 1.328 2.075 6.128 4.08 10 .33.628.097 1.414-.507 1.757a1.17 1.17 0 0 1-.591.171" mask="url(#b)"/>
        </g>
        <path fill="#F15A22" d="M31.595 24a.949.949 0 0 1-.335-.059c-.62-.204-.981-.95-.8-1.652.838-3.277-1.252-7.21-1.278-7.255-.349-.629-.181-1.448.374-1.828.555-.395 1.278-.205 1.613.424.116.205 2.685 4.944 1.536 9.405-.129.585-.594.965-1.11.965"/>
        <path fill="#F15A22" d="M36.653 21c-.325 0-.665-.107-.931-.335l-5.306-4.558c-.532-.47-.561-1.233-.044-1.73a1.451 1.451 0 0 1 1.906-.04l5.306 4.558c.532.47.562 1.234.044 1.73-.266.24-.62.375-.975.375M27 37.09c0-.294.013-.572.053-.836l.04-.264c.052-.322.303-.557.594-.557h.384c.33 0 .607.308.607.674 0 .763.106 1.334.304 1.73.212.396.53.601.952.601.37 0 .634-.102.82-.308.184-.205.264-.498.264-.894 0-.146-.014-.308-.04-.484a3.291 3.291 0 0 0-.145-.527c-.066-.19-.159-.381-.265-.601a7.607 7.607 0 0 0-.436-.69l-1.943-2.77a7.61 7.61 0 0 1-.819-1.495c-.198-.498-.29-1.07-.29-1.685 0-.41.052-.792.158-1.144.106-.351.264-.66.462-.938.199-.264.45-.498.727-.674.159-.088.317-.176.503-.235.29-.102.489-.395.489-.732v-.499c0-.425.304-.762.687-.762.383 0 .687.337.687.762v.528c0 .322.198.616.476.718.198.073.383.161.542.279a2.57 2.57 0 0 1 1.018 1.554c.065.307.105.615.105.923 0 .293-.013.572-.053.835-.013.088-.026.19-.04.294-.052.322-.304.557-.594.557h-.37c-.33 0-.608-.308-.608-.675 0-.747-.106-1.304-.318-1.7-.21-.396-.515-.601-.911-.601-.357 0-.635.117-.82.337-.185.22-.277.513-.277.894 0 .323.053.601.172.865.118.264.264.528.449.792l2.18 3.122c.199.293.384.571.542.85.159.278.291.542.397.82.106.28.185.558.238.836.053.293.079.587.079.909 0 .41-.053.777-.145 1.114a3.024 3.024 0 0 1-.436.894 2.578 2.578 0 0 1-.688.66 2.802 2.802 0 0 1-.462.234c-.265.103-.45.396-.45.719v.718c0 .425-.304.762-.687.762-.383 0-.687-.337-.687-.762v-.587a.767.767 0 0 0-.542-.747 2.48 2.48 0 0 1-.621-.25 2.51 2.51 0 0 1-.74-.674 2.665 2.665 0 0 1-.397-.894A3.189 3.189 0 0 1 27 37.09"/>
    </g>
</svg>
