<svg xmlns="http://www.w3.org/2000/svg" width="81" height="68" viewBox="0 0 81 68">
    <g fill="none" fill-rule="evenodd" stroke="#F15A22" stroke-width="2">
        <path d="M42.815 36.372c.055-.448.097-.896.097-1.372 0-.476-.042-.924-.097-1.372l2.928-2.31a.71.71 0 0 0 .167-.896l-2.776-4.844c-.166-.308-.541-.42-.846-.308l-3.456 1.4a10.12 10.12 0 0 0-2.346-1.372l-.527-3.71a.68.68 0 0 0-.68-.588h-5.552a.679.679 0 0 0-.68.588l-.527 3.71c-.847.35-1.624.826-2.346 1.372l-3.455-1.4a.674.674 0 0 0-.847.308l-2.776 4.844a.694.694 0 0 0 .167.896l2.928 2.31c-.055.448-.097.91-.097 1.372 0 .462.042.924.097 1.372l-2.928 2.31a.71.71 0 0 0-.167.896l2.776 4.844c.167.308.541.42.847.308l3.455-1.4a10.12 10.12 0 0 0 2.346 1.372l.527 3.71a.679.679 0 0 0 .68.588h5.552a.679.679 0 0 0 .68-.588l.527-3.71c.847-.35 1.624-.826 2.346-1.372l3.456 1.4c.319.126.68 0 .846-.308l2.776-4.844a.71.71 0 0 0-.167-.896l-2.928-2.31zM32.503 39.9c-2.679 0-4.857-2.198-4.857-4.9 0-2.702 2.178-4.9 4.857-4.9 2.679 0 4.858 2.198 4.858 4.9 0 2.702-2.18 4.9-4.858 4.9z"/>
        <path d="M34 1c18.225 0 33 14.775 33 33h11L63.333 48.667 48.666 34h11C59.666 19.81 48.19 8.333 34 8.333 19.81 8.333 8.332 19.81 8.332 34a25.648 25.648 0 0 0 40.554 20.9l5.207 5.28A33 33 0 1 1 33.999 1z"/>
    </g>
</svg>
