<svg xmlns="http://www.w3.org/2000/svg" width="93" height="67" viewBox="0 0 93 67">
    <g fill="#F15A22" fill-rule="nonzero">
        <path d="M21.5 48c-5.24 0-9.5 4.26-9.5 9.5s4.26 9.5 9.5 9.5 9.5-4.26 9.5-9.5-4.26-9.5-9.5-9.5zm0 15.833a6.34 6.34 0 0 1-6.333-6.333 6.34 6.34 0 0 1 6.333-6.333 6.34 6.34 0 0 1 6.333 6.333 6.34 6.34 0 0 1-6.333 6.333zM74.5 48c-5.24 0-9.5 4.26-9.5 9.5s4.26 9.5 9.5 9.5 9.5-4.26 9.5-9.5-4.26-9.5-9.5-9.5zm0 15.833a6.34 6.34 0 0 1-6.333-6.333 6.34 6.34 0 0 1 6.333-6.333 6.34 6.34 0 0 1 6.333 6.333 6.34 6.34 0 0 1-6.333 6.333z"/>
        <path d="M92.754 39.492L78.845 17.714a1.543 1.543 0 0 0-1.3-.714h-17A1.55 1.55 0 0 0 59 18.555v38.89c0 .86.69 1.555 1.545 1.555h6.182v-3.111h-4.636V20.11H76.7l13.208 20.68v15.098h-7.727V59h9.273c.854 0 1.545-.695 1.545-1.555V40.333a1.56 1.56 0 0 0-.246-.841z"/>
        <path d="M68.125 37.91V27.09h12.5V24H66.562c-.864 0-1.562.692-1.562 1.545v13.91c0 .854.698 1.545 1.562 1.545H90v-3.091H68.125zM60.45 6H1.55C.694 6 0 6.698 0 7.559V57.44C0 58.303.694 59 1.55 59h12.4v-3.118H3.1V9.118h55.8v46.764H29.45V59h31c.857 0 1.55-.697 1.55-1.559V7.56C62 6.699 61.307 6 60.45 6z"/>
        <path d="M1 50h9v3H1zM32 50h26v3H32zM85 50h6v3h-6zM7 13h54v3H7zM20 56h3v3h-3zM72 56h3v3h-3zM6 0h22v3H6zM0 0h3v3H0z"/>
    </g>
</svg>
