<svg xmlns="http://www.w3.org/2000/svg" xmlns:xlink="http://www.w3.org/1999/xlink" width="61" height="73" viewBox="0 0 61 73">
    <defs>
        <path id="a" d="M0 .052h69v85.105H0z"/>
    </defs>
    <g fill="none" fill-rule="evenodd">
        <g transform="translate(-5 -4)">
            <mask id="b" fill="#fff">
                <use xlink:href="#a"/>
            </mask>
            <path fill="#F27B25" stroke="#F15A22" d="M21.835 67.6a.54.54 0 0 0-.432-.226h-.052l-8.336.769 4.341-9.436c1.141 1.31 2.819 2.114 4.53 2.114a5.54 5.54 0 0 0 3.148-.979 5.604 5.604 0 0 0 1.574 3.216c1.124 1.135 2.698 1.782 4.323 1.782h.139l-4.462 9.698-4.773-6.937zm28.43-.209a.497.497 0 0 0-.467.227l-4.79 6.955-4.462-9.698h.139c1.642 0 3.216-.647 4.323-1.782a5.604 5.604 0 0 0 1.574-3.216 5.54 5.54 0 0 0 3.147.979c1.712 0 3.39-.786 4.53-2.115l4.341 9.437-8.335-.787zM10.715 33.23c.19-.07.346-.245.364-.437a.538.538 0 0 0-.26-.507c-2.404-1.38-2.75-3.826-2.317-5.521.45-1.695 1.92-3.688 4.634-3.688.208 0 .415.018.64.035a.5.5 0 0 0 .502-.262.538.538 0 0 0-.035-.576c-1.141-1.556-1.314-3.408-.484-5.068.847-1.712 2.56-2.813 4.358-2.813.847 0 1.695.244 2.507.716a.523.523 0 0 0 .571-.035.54.54 0 0 0 .208-.541c-.329-1.503-.018-2.971.882-4.107a5.104 5.104 0 0 1 3.96-1.905c1.556 0 2.922.734 3.873 2.08a.53.53 0 0 0 .536.21.5.5 0 0 0 .398-.402c.588-2.901 2.94-3.932 4.773-3.932 1.833 0 4.185 1.03 4.773 3.932a.48.48 0 0 0 .398.402.53.53 0 0 0 .536-.21c.95-1.346 2.334-2.08 3.874-2.08a5.13 5.13 0 0 1 3.96 1.905c.899 1.136 1.21 2.586.882 4.107a.51.51 0 0 0 .207.541c.173.123.398.14.57.035.814-.472 1.644-.716 2.508-.716 1.799 0 3.51 1.1 4.358 2.813.83 1.678.657 3.53-.484 5.068a.535.535 0 0 0-.034.576c.103.175.31.28.5.262.209-.017.433-.035.64-.035 2.716 0 4.186 1.993 4.635 3.688.433 1.677.087 4.14-2.317 5.521a.538.538 0 0 0-.26.507c.018.21.156.385.364.437 2.801.891 3.562 3.355 3.372 5.207-.19 1.853-1.453 4.107-4.375 4.386a.52.52 0 0 0-.45.367.53.53 0 0 0 .156.56c1.574 1.415 2.075 3.424 1.349 5.382-.744 1.974-2.49 3.25-4.48 3.25-.535 0-1.089-.088-1.642-.28a.51.51 0 0 0-.553.14.54.54 0 0 0-.087.577c.709 1.59.623 3.232-.277 4.63-.933 1.45-2.542 2.36-4.202 2.36-1.176 0-2.3-.455-3.25-1.329a.503.503 0 0 0-.554-.087.538.538 0 0 0-.312.49c.018 1.38-.45 2.585-1.348 3.494-.917.944-2.231 1.485-3.597 1.485-1.955 0-3.597-1.1-4.393-2.97a.532.532 0 0 0-.968 0c-.796 1.852-2.439 2.97-4.393 2.97a5.061 5.061 0 0 1-3.597-1.485c-.882-.909-1.349-2.114-1.349-3.495a.538.538 0 0 0-.311-.489.493.493 0 0 0-.553.087c-.934.874-2.058 1.328-3.251 1.328-1.66 0-3.286-.908-4.203-2.359-.899-1.398-.985-3.04-.276-4.63a.54.54 0 0 0-.087-.577.502.502 0 0 0-.553-.14 4.994 4.994 0 0 1-1.643.28c-1.972 0-3.735-1.276-4.48-3.25-.725-1.958-.224-3.967 1.35-5.382.155-.14.207-.35.155-.56a.576.576 0 0 0-.45-.367c-2.922-.28-4.184-2.533-4.374-4.386-.173-1.852.605-4.316 3.406-5.207zm-.103 10.45c-1.332 1.625-1.678 3.774-.934 5.801.899 2.394 3.026 3.932 5.447 3.932.329 0 .657-.035.986-.088a5.839 5.839 0 0 0 .536 4.439l-4.98 10.782a.483.483 0 0 0 .051.524.515.515 0 0 0 .467.227l8.94-.821 5.12 7.444a.54.54 0 0 0 .432.227h.052a.522.522 0 0 0 .432-.297l5.119-11.114c1.453-.332 2.68-1.223 3.51-2.534.83 1.31 2.058 2.185 3.511 2.534L44.42 75.85c.086.175.242.28.432.297h.052a.539.539 0 0 0 .432-.227l5.12-7.444 8.94.82h.052a.512.512 0 0 0 .519-.523c0-.105-.035-.193-.07-.28l-4.946-10.73c.779-1.345.952-2.917.537-4.438.328.053.657.088.985.088 2.421 0 4.548-1.538 5.448-3.932.76-2.027.397-4.159-.934-5.801 2.663-.7 4.081-2.988 4.306-5.138.225-2.167-.692-4.7-3.148-5.941 1.816-1.468 2.577-3.774 1.972-6.116-.57-2.167-2.439-4.351-5.378-4.473a5.78 5.78 0 0 0 .034-5.295c-1.02-2.062-3.095-3.39-5.291-3.39-.727 0-1.436.14-2.11.42.086-1.451-.329-2.832-1.228-3.967-1.141-1.433-2.923-2.307-4.756-2.307-1.556 0-2.974.612-4.064 1.73-.968-2.604-3.372-3.775-5.516-3.775-2.145 0-4.548 1.189-5.517 3.792a5.526 5.526 0 0 0-4.064-1.73 6.157 6.157 0 0 0-4.773 2.307c-.899 1.118-1.314 2.499-1.227 3.967-.692-.28-1.401-.42-2.11-.42-2.18 0-4.254 1.328-5.292 3.39-.847 1.713-.83 3.617.035 5.295-2.94.122-4.808 2.307-5.378 4.473-.606 2.36.155 4.666 1.971 6.116-2.456 1.224-3.372 3.757-3.147 5.924.224 2.167 1.642 4.456 4.306 5.138z" mask="url(#b)"/>
        </g>
        <path fill="#F15A22" stroke="#F15A22" d="M31 8.061c12.114 0 21.962 10.065 21.962 22.448 0 12.382-9.848 22.447-21.962 22.447-12.114 0-21.962-10.065-21.962-22.447C9.038 18.126 18.886 8.06 31 8.06M31 54c12.685 0 23-10.543 23-23.509C54 17.525 43.685 7 31 7S8 17.543 8 30.509C8 43.475 18.315 54 31 54"/>
        <path fill="#F15A22" d="M28.318 36.239l-5.488-5.642-1.83 1.88L28.318 40 44 23.88 42.17 22z"/>
    </g>
</svg>
